<?xml version='1.0' encoding='utf-8'?>
<svg xmlns="http://www.w3.org/2000/svg" enable-background="new 0 0 640 480" version="1.1" viewBox="0 0 640 480">
	<circle cx="320" cy="240" r="215.54" fill="#fff" stroke="#000" stroke-miterlimit="10"/>
<path d="m418.78 281.17c0 36.087-8.506 64.537-25.519 85.349-17.012 20.814-39.952 31.027-68.82 30.641-31.833-0.387-56.771-10.759-74.813-31.124-18.945-21.265-28.417-51.549-28.417-90.858 0-29.383 6.83-60.376 20.492-92.984 11.985-28.611 30.737-61.731 56.255-99.364l91.438 19.332c-8.893 8.379-23.004 23.458-42.336 45.236-20.104 26.421-32.477 44.849-37.116 55.288 12.499-5.283 24.871-7.926 37.116-7.926 20.618 0 37.63 7.862 51.035 23.584 13.79 16.11 20.68 37.05 20.68 62.82zm-69.2 18.56c0-10.31-2.514-18.622-7.54-24.938-5.026-6.312-11.148-9.472-18.364-9.472-8.12 0-15.079 2.899-20.878 8.699-2.707 6.572-4.06 13.599-4.06 21.071 0 11.342 2.126 21.071 6.379 29.19 4.767 9.279 11.212 13.919 19.331 13.919 6.573 0 12.402-3.993 17.495-11.985 5.09-8 7.64-16.83 7.64-26.49z"/>
</svg>